<svg width="22" height="16" viewBox="0 0 22 16" fill="none" xmlns="http://www.w3.org/2000/svg">
<path d="M16.9471 1.49201C14.7037 1.49201 13.0106 2.97349 12.3334 5.30153C11.2752 3.65074 10.4286 1.78831 9.96299 0.17984H7.59262V6.40206C7.59262 7.62957 6.57674 8.64545 5.34923 8.64545C4.12172 8.64545 3.10584 7.62957 3.10584 6.40206V0.222168H0.820129V6.44439C0.820129 9.0264 2.8942 11.1005 5.43389 11.1005C7.97357 11.1005 10.0476 9.0264 10.0476 6.44439V5.38619C10.5133 6.31741 11.1058 7.33328 11.7408 8.22217L10.2593 15.1216H12.672L13.6879 10.0846C14.6191 10.6772 15.6773 11.0158 16.9471 11.0158C19.5291 11.0158 21.6455 8.89942 21.6455 6.19042C21.6455 3.60841 19.5291 1.49201 16.9471 1.49201ZM16.9471 8.64545C16.0159 8.64545 15.0423 8.22217 14.2804 7.58725L14.5344 6.65603V6.6137C14.7037 5.59783 15.254 3.90471 16.9894 3.90471C18.3016 3.90471 19.3598 4.96291 19.3598 6.27508C19.3175 7.58725 18.1746 8.64545 16.9471 8.64545Z" fill="#1A1A1A"/>
</svg>
